<?xml version="1.0" standalone="no"?>
<!DOCTYPE svg PUBLIC "-//W3C//DTD SVG 20010904//EN"
 "http://www.w3.org/TR/2001/REC-SVG-20010904/DTD/svg10.dtd">
<svg version="1.0" xmlns="http://www.w3.org/2000/svg"
 width="1200.000000pt" height="1200.000000pt" viewBox="0 0 1200.000000 1200.000000"
 preserveAspectRatio="xMidYMid meet">

<g transform="translate(0.000000,1200.000000) scale(0.100000,-0.100000)"
fill="#000000" stroke="none">
<path d="M4135 11643 c-293 -62 -534 -285 -631 -583 -25 -77 -28 -99 -28 -240
-1 -133 2 -166 22 -233 24 -83 75 -193 125 -267 16 -25 991 -1007 2166 -2183
l2136 -2137 -2136 -2138 c-1175 -1175 -2152 -2160 -2173 -2189 -46 -65 -109
-199 -133 -283 -14 -50 -18 -100 -17 -220 0 -142 2 -162 28 -240 54 -163 115
-259 238 -375 129 -122 292 -200 473 -224 161 -23 385 25 540 115 74 43 259
225 2571 2538 1872 1872 2501 2507 2533 2556 131 206 168 493 92 720 -18 52
-51 129 -73 170 -39 69 -227 260 -2522 2558 -1823 1824 -2499 2495 -2550 2529
-88 59 -200 108 -294 128 -92 19 -274 18 -367 -2z"/>
</g>
</svg>
